<svg id="图层_1" data-name="图层 1" xmlns="http://www.w3.org/2000/svg" width="24px" height="24px" viewBox="0 0 23.17812 23.45945"><title>3D_Vol_Function</title><line x1="7.94216" y1="13.57295" x2="0.5" y2="17.31467" style="fill:#dfdfdf;stroke:#000;stroke-miterlimit:10"/><line x1="22.67812" y1="17.31467" x2="14.53124" y2="13.21864" style="fill:#dfdfdf;stroke:#000;stroke-miterlimit:10"/><line x1="11.58906" y1="7.6425" x2="11.58906" y2="0.55983" style="fill:#dfdfdf;stroke:#000;stroke-miterlimit:10"/><path d="M11.47891,4.64243s-1.72561-.66087-2.01933.14686-.771,2.53334-1.57875,2.64349S3.76874,8.68109,4.3929,13.63763c.257.95459.88116,1.06474.88116,1.83576a2.51925,2.51925,0,0,0,.69759,1.799A5.112,5.112,0,0,0,7.0731,18.227a26.53086,26.53086,0,0,0,4.69954.22029,3.06534,3.06534,0,0,0,1.35845-.99131c.11015-.22029,1.6889-1.9459,1.6889-1.9459V14.44536l1.35846-4.55267s-.03672-4.33238,0-4.40581a1.17556,1.17556,0,0,0-1.028-.80774C14.48955,4.67914,11.47891,4.64243,11.47891,4.64243Z" style="fill:#ecd52a"/><path d="M10.95793,18.88516c-1.4375,0-3.84034-.2666-3.959-.291-.25195-.05078-.543-.30762-1.291-1.05469a2.88423,2.88423,0,0,1-.80909-2.0664.97207.97207,0,0,0-.29541-.65723,2.83942,2.83942,0,0,1-.57275-1.08008C3.40129,8.76309,6.56047,7.23477,7.83,7.06192c.47461-.06543.93213-1.40039,1.15185-2.042l.125-.3584A.91716.91716,0,0,1,9.602,4.13321a3.0741,3.0741,0,0,1,1.9458.13477c.439.00488,3,.03613,3.60254.03613a1.55348,1.55348,0,0,1,1.26416.77539.65747.65747,0,0,1,.13281.48242c-.01953.32422-.00683,2.80274.00635,4.32813l.00049.05566L15.19523,14.5004v1.15527l-.09814.10742c-.7295.79688-1.541,1.71485-1.63575,1.8711a3.344,3.344,0,0,1-1.56347,1.167A3.45185,3.45185,0,0,1,10.95793,18.88516ZM10.23527,4.76309a.80748.80748,0,0,0-.32227.05274.16694.16694,0,0,0-.10107.10156l-.1206.3457c-.34913,1.01856-.82715,2.41407-1.75977,2.541-.03809.00586-3.82129.584-3.1665,5.78711a2.11148,2.11148,0,0,0,.43066.76465,1.683,1.683,0,0,1,.45312,1.11719,2.12545,2.12545,0,0,0,.5879,1.53515,7.99308,7.99308,0,0,0,.94531.86133,28.95791,28.95791,0,0,0,4.46631.22461,2.85141,2.85141,0,0,0,1.14892-.80762,23.51089,23.51089,0,0,1,1.64795-1.92187l.01563-1.02637,1.34228-4.49805c-.02588-3.03906-.022-3.9873.001-4.31933a.8539.8539,0,0,0-.65381-.4668c-.66162,0-3.67578-.03711-3.67578-.03711l-.1294-.02441A3.55788,3.55788,0,0,0,10.23527,4.76309Z" style="fill:#282828"/><path d="M10.93855,8.70157a.11487.11487,0,1,0,0-.22973V8.4712h-.84342l.15984-.69355a2.27984,2.27984,0,0,1,.27108-.71785.46786.46786,0,0,1,.37925-.26519,1.24733,1.24733,0,0,1,.23911.03247,2.40252,2.40252,0,0,0,.42069.06854.24023.24023,0,0,0,.17517-.06521.21754.21754,0,0,0,.067-.1629.23113.23113,0,0,0-.09872-.18541.4645.4645,0,0,0-.29281-.07826,1.44984,1.44984,0,0,0-.73192.22965A1.8047,1.8047,0,0,0,10.0537,7.26,4.26514,4.26514,0,0,0,9.62407,8.4712H8.80623v.00155a.11426.11426,0,0,0,0,.22822v.00142h.76056l-.646,2.65632a1.88635,1.88635,0,0,1-.28668.7406.60542.60542,0,0,1-.45827.1514,3.24849,3.24849,0,0,1-.42631-.02941,1.75677,1.75677,0,0,0-.19743-.01611.31.31,0,0,0-.2051.0601.19956.19956,0,0,0-.07161.16111.23988.23988,0,0,0,.10332.19691.49139.49139,0,0,0,.30381.07979,1.58033,1.58033,0,0,0,1.10938-.48819,2.8873,2.8873,0,0,0,.74291-1.4357l.49843-2.07682h.9053Z" style="fill:#ec2232"/><path d="M14.02859,11.53925a.145.145,0,0,0-.11125-.0537q-.13387,0-.19436.16623-.09206.25394-.29588.25394a.40705.40705,0,0,1-.26085-.09462,1.28607,1.28607,0,0,1-.3501-.47515,4.57634,4.57634,0,0,1-.27389-.95057l-.20357-.97333a2.57239,2.57239,0,0,1,.54114-.69074.67794.67794,0,0,1,.40713-.15907.86081.86081,0,0,0,.347-.06546.19973.19973,0,0,0,.089-.16725.20833.20833,0,0,0-.06342-.15421.23186.23186,0,0,0-.16878-.0624.92387.92387,0,0,0-.5061.22479,3.35524,3.35524,0,0,0-.69688.81707,2.67843,2.67843,0,0,0-.20689-.76823.21943.21943,0,0,0-.1941-.12377.59888.59888,0,0,0-.25139.09437,3.49089,3.49089,0,0,0-.58844.42945.0781.0781,0,0,0-.02558.05719.07954.07954,0,0,0,.07955.07955.07392.07392,0,0,0,.03261-.0135s.20674-.15861.33-.23047a.29233.29233,0,0,1,.13349-.05191.14739.14739,0,0,1,.11636.06981.94225.94225,0,0,1,.10332.31763l.13042.60864-.3946.59587a3.291,3.291,0,0,1-.29281.36442.99715.99715,0,0,1-.21328.19538.21124.21124,0,0,1-.09846.02941c-.04476,0-.0913-.03273-.14014-.09769a.23028.23028,0,0,0-.16879-.11073.18372.18372,0,0,0-.13989.06674.22714.22714,0,0,0-.06061.15779.24434.24434,0,0,0,.09233.19052.34306.34306,0,0,0,.23246.07979.70651.70651,0,0,0,.41991-.166,3.58727,3.58727,0,0,0,.62067-.74547q.14-.20522.20382-.29307a6.12327,6.12327,0,0,0,.37389,1.382,1.55072,1.55072,0,0,0,.48052.63141.99512.99512,0,0,0,.5841.19692.731.731,0,0,0,.45342-.1335.37245.37245,0,0,0,.17671-.29281A.19626.19626,0,0,0,14.02859,11.53925Z" style="fill:#ec2232"/><polygon points="11.589 12.288 0.276 6.638 0.724 5.744 11.589 11.17 22.455 5.744 22.902 6.638 11.589 12.288" style="fill:#212020"/><rect x="11.08927" y="11.72891" width="1" height="11.47461" style="fill:#212020"/><path d="M11.58927,23.45938-.00008,17.62247V5.83731L11.58927.0004,23.17814,5.83731V17.62247ZM.99992,17.00723l10.58935,5.333,10.58887-5.333V6.45255l-10.58887-5.333L.99992,6.45255Z" style="fill:#ec2232"/></svg>